<svg xmlns="http://www.w3.org/2000/svg" viewBox="0 0 48 48">
  <defs>
    <linearGradient id="doc" x1="0%" y1="0%" x2="0%" y2="100%">
      <stop offset="0%" style="stop-color:#ffffff"/>
      <stop offset="100%" style="stop-color:#e0e0e0"/>
    </linearGradient>
  </defs>
  <path d="M10 4h20l10 10v30c0 1-1 2-2 2H12c-1 0-2-1-2-2V6c0-1 1-2 2-2z" fill="url(#doc)" stroke="#808080" stroke-width="0.5"/>
  <path d="M30 4v8c0 1 1 2 2 2h8" fill="none" stroke="#808080" stroke-width="0.5"/>
  <path d="M30 4l10 10h-8c-1 0-2-1-2-2V4z" fill="#c0c0c0"/>
  <rect x="14" y="18" width="20" height="2" fill="#0066cc"/>
  <rect x="14" y="24" width="18" height="1" fill="#808080"/>
  <rect x="14" y="28" width="20" height="1" fill="#808080"/>
  <rect x="14" y="32" width="16" height="1" fill="#808080"/>
  <rect x="14" y="36" width="18" height="1" fill="#808080"/>
</svg>
