<svg xmlns="http://www.w3.org/2000/svg" viewBox="0 0 48 48">
  <defs>
    <linearGradient id="gear" x1="0%" y1="0%" x2="0%" y2="100%">
      <stop offset="0%" style="stop-color:#c0c0c0"/>
      <stop offset="100%" style="stop-color:#808080"/>
    </linearGradient>
  </defs>
  <path d="M24 6l3 4h4l2-3 4 2-1 4 3 2 4-2 2 4-4 2v4l4 2-2 4-4-2-3 2 1 4-4 2-2-3h-4l-3 4-4-2 1-4-3-2-4 2-2-4 4-2v-4l-4-2 2-4 4 2 3-2-1-4z" fill="url(#gear)" stroke="#404040" stroke-width="0.5"/>
  <circle cx="24" cy="24" r="8" fill="#606060"/>
  <circle cx="24" cy="24" r="5" fill="#808080"/>
  <circle cx="24" cy="24" r="3" fill="#a0a0a0"/>
</svg>
